<?xml version="1.0" encoding="UTF-8" standalone="no"?>
<!-- Created with Inkscape (http://www.inkscape.org/) -->

<svg
   width="210mm"
   height="210mm"
   viewBox="0 0 210 210"
   version="1.1"
   id="svg1"
   xml:space="preserve"
   inkscape:version="1.4.3 (0d15f75042, 2025-12-25)"
   sodipodi:docname="icon.svg"
   xmlns:inkscape="http://www.inkscape.org/namespaces/inkscape"
   xmlns:sodipodi="http://sodipodi.sourceforge.net/DTD/sodipodi-0.dtd"
   xmlns="http://www.w3.org/2000/svg"
   xmlns:svg="http://www.w3.org/2000/svg"><sodipodi:namedview
     id="namedview1"
     pagecolor="#5c3a00"
     bordercolor="#666666"
     borderopacity="1.0"
     inkscape:showpageshadow="2"
     inkscape:pageopacity="0.0"
     inkscape:pagecheckerboard="0"
     inkscape:deskcolor="#d1d1d1"
     inkscape:document-units="mm"
     inkscape:zoom="1.2037928"
     inkscape:cx="47.765697"
     inkscape:cy="499.67073"
     inkscape:window-width="3773"
     inkscape:window-height="2091"
     inkscape:window-x="0"
     inkscape:window-y="0"
     inkscape:window-maximized="1"
     inkscape:current-layer="layer6" /><defs
     id="defs1"><inkscape:path-effect
       effect="fillet_chamfer"
       id="path-effect11"
       is_visible="true"
       lpeversion="1"
       nodesatellites_param="F,0,0,1,0,0,0,1 @ F,0,0,1,0,0,0,1 @ F,0,0,1,0,0,0,1"
       radius="0"
       unit="px"
       method="auto"
       mode="F"
       chamfer_steps="1"
       flexible="false"
       use_knot_distance="true"
       apply_no_radius="true"
       apply_with_radius="true"
       only_selected="false"
       hide_knots="false" /></defs><g
     inkscape:groupmode="layer"
     id="layer10"
     inkscape:label="Layer 10" /><g
     inkscape:label="Layer 1"
     inkscape:groupmode="layer"
     id="layer1"
     style="display:inline" /><g
     inkscape:groupmode="layer"
     id="layer2"
     inkscape:label="Layer 2"
     style="display:inline" /><g
     inkscape:groupmode="layer"
     id="layer4"
     inkscape:label="Layer 4"
     style="display:inline" /><g
     inkscape:groupmode="layer"
     id="layer5"
     inkscape:label="Layer 5"
     style="display:inline" /><g
     inkscape:groupmode="layer"
     id="layer7"
     inkscape:label="Layer 7"
     style="display:inline"><path
       style="display:none;fill:#ffffff;fill-opacity:0.20126;stroke-width:0.7;stroke-linecap:square"
       d="m 66.518054,105.13893 63.953686,-0.0777 c 0,0 2.80448,18.4499 2.48666,27.72233 -0.31905,9.30832 -4.19648,21.18531 -4.58477,24.49745 -2.59416,22.12859 -5.9081,68.08289 -6.13894,68.22763 -0.21298,0.13354 -10.61746,0.57285 -17.23469,0.56337 -6.61723,-0.009 -20.432071,-0.4579 -22.551807,-0.95192 -2.783552,-0.64872 -4.589511,-3.27876 -4.85675,-5.76982 -2.082566,-19.4125 -4.507338,-47.49812 -5.866953,-58.26157 -0.617402,-4.88769 -7.549277,-10.34883 -7.615385,-28.00691 -0.04574,-12.21767 2.408949,-27.94286 2.408949,-27.94286 z"
       id="path8"
       sodipodi:nodetypes="ccssszssssc" /></g><g
     inkscape:groupmode="layer"
     id="layer8"
     inkscape:label="Layer 8"
     style="display:inline" /><g
     inkscape:groupmode="layer"
     id="layer9"
     inkscape:label="Layer 9"
     style="display:inline"><g
       inkscape:groupmode="layer"
       id="layer3"
       inkscape:label="Layer 3"
       style="display:inline" /></g><g
     inkscape:groupmode="layer"
     id="layer6"
     inkscape:label="Layer 6"
     style="display:inline"><g
       id="g11"
       transform="translate(-0.24488847,2.6871018)"><path
         style="display:inline;fill:#d3dee4;fill-opacity:1;stroke-width:0.7;stroke-linecap:square"
         d="m 63.376366,48.244222 h 83.300944 c 0.43168,-9.8e-4 0.98963,0.44485 0.98906,0.76927 1.59349,9.52429 2.6375,19.10353 2.80235,28.57288 -0.54948,15.66014 -3.62657,20.00103 -7.30808,27.968468 l -7.08826,69.83872 c -0.27474,2.74739 -2.08802,5.87942 -5.11016,5.93437 -8.70008,0.76927 -17.29026,0.93411 -26.10023,1.1539 -8.97481,-0.12821 -17.400147,-0.36632 -25.935379,-1.20885 -2.838973,-0.43958 -4.139406,-2.6375 -4.89036,-5.60468 l -7.088274,-70.93769 c -5.403206,-8.919868 -7.454593,-18.938688 -6.813534,-29.561948 0.128211,-8.7367 1.025693,-17.47341 2.362757,-26.21012 -0.0032,-0.29153 0.484119,-0.71419 0.879166,-0.71432 z"
         id="path1"
         sodipodi:nodetypes="cccccccccccccc" /><path
         style="display:inline;fill:#efaa00;fill-opacity:1;stroke-width:0.7;stroke-linecap:square"
         d="m 65.550479,50.152222 79.145601,-0.0777 c 0,0 2.09278,11.17767 2.17582,29.91758 0.0447,10.08904 -4.80894,19.71836 -6.60518,23.904168 -1.91855,4.47084 -3.56617,34.51536 -6.72174,61.06954 -0.44865,3.77537 -4.57035,5.37667 -5.51727,5.43956 -7.8493,0.52133 -14.31421,0.80036 -22.09072,0.77707 -7.776504,-0.0233 -21.523831,-0.20053 -24.534082,-1.0102 -3.783891,-1.01776 -4.755163,-4.74286 -4.895603,-6.13893 -1.822179,-18.11381 -3.581702,-38.28083 -5.672683,-57.65934 -0.431218,-3.99638 -7.682751,-11.756308 -7.693094,-28.518838 -0.0079,-12.72715 2.40895,-27.7029 2.40895,-27.7029 z"
         id="path3"
         sodipodi:nodetypes="ccsssszssssc" /><path
         style="display:inline;fill:#fff0bb;fill-opacity:1;stroke-width:0.7;stroke-linecap:square"
         d="m 65.550479,50.152232 79.145601,-0.0777 c 1.1127,8.47818 1.8552,14.39706 1.9998,21.55438 l -83.391765,0.0153 c 0.329689,-6.97448 1.115011,-14.31633 2.246363,-21.49194 z"
         id="path4"
         sodipodi:nodetypes="cccccc" /><path
         id="path3-6"
         style="display:inline;mix-blend-mode:multiply;fill:#d89122;fill-opacity:0.37027;stroke-width:0.7;stroke-linecap:square"
         d="m 144.69608,50.074522 -15.19184,0.0387 c 0,0 2.80449,18.44991 2.48667,27.72234 -0.31905,9.30832 -4.19645,21.18559 -4.58474,24.497728 -2.59416,22.12859 -6.29109,68.00119 -6.13916,68.22736 0.19402,0.28883 0.92985,0.16048 6.76083,-0.15555 0.94762,-0.0514 5.06833,-1.66409 5.51698,-5.43946 3.15557,-26.55418 4.80352,-56.59882 6.72207,-61.06966 1.79624,-4.185808 6.64946,-13.814928 6.60476,-23.903968 -0.083,-18.73991 -2.17557,-29.91755 -2.17557,-29.91755 z"
         sodipodi:nodetypes="ccssssssscc" /><path
         style="display:inline;fill:#ffffff;fill-opacity:0.520036;stroke-width:0.7;stroke-linecap:square"
         d="m 71.316331,50.194862 12.143478,0.0275 c 0,0 -4.229462,33.30544 2.280336,52.310358 0.656605,1.91692 5.891082,77.53759 5.891082,77.53759 l -9.23754,-0.5051 c 0,0 -6.94385,-74.50275 -7.588166,-76.20827 -8.004428,-21.187948 -5.183415,-33.298418 -3.48919,-53.162078 z"
         id="path9"
         sodipodi:nodetypes="ccsccsc" /><path
         style="display:inline;fill:#ffffff;fill-opacity:1;stroke-width:0.7;stroke-linecap:square"
         d="m 108.79076,71.638272 c 0,0 1.12048,4.45149 0.85864,10.39548 -0.12575,2.8545 -1.48333,7.81859 -1.49054,9.39948 -0.009,1.93037 3.69655,8.22334 10.87968,8.35208 5.27657,0.0946 6.21077,-3.04815 9.28619,-3.13203 1.40215,-0.0382 1.40701,0.41026 1.42864,0.98906 0.0343,0.91924 -1.25328,0.85006 -1.70338,0.87917 -0.92038,0.0595 -1.95751,1.06004 -2.47265,1.703378 1.0005,0.54948 2.05789,1.19454 3.18697,1.15391 1.13529,-0.0409 2.15168,-0.46448 3.24193,-0.43959 0.4305,0.01 0.76512,0.0983 0.76926,0.93412 0.004,0.8358 -2.03185,1.3221 -3.18697,1.31874 -2.82358,-0.008 -4.22037,-1.35344 -5.38489,-1.59349 -1.20821,-0.24905 -2.7922,0.25165 -3.67463,0.43959 0.64743,1.12539 1.28252,2.5107 2.30734,3.24192 1.11025,0.79217 2.92091,0.67728 4.05973,1.3737 1.13882,0.69642 1.83956,1.29252 1.31875,2.08802 -0.52081,0.7955 -1.66568,-0.16216 -2.36275,-0.54948 -1.03821,-0.57688 -2.42229,-0.68032 -3.40677,-1.04401 -0.19232,0.8059 -0.1053,1.61871 0,2.4177 0.13035,0.98906 1.37239,2.58768 0.39104,2.96719 -0.98135,0.37951 -1.74386,-0.75273 -2.02041,-2.08802 -0.27525,-1.32899 -0.26427,-2.76053 -0.48023,-4.10853 -0.20548,-1.28252 -1.08479,-2.85041 -1.9016,-3.36438 -3.80965,-2.39719 -7.41018,-1.52838 -11.39696,-7.265868 -0.89209,7.317488 -2.92172,18.196468 6.7264,22.321588 3.18843,1.36324 8.23253,0.75532 11.04452,-1.4836 0.57672,-0.45919 1.29013,-1.50055 2.07526,-0.8725 0.78512,0.62806 0.01,1.50069 -0.28865,1.795 -1.00836,0.99406 -2.37441,1.85102 -3.30906,2.16458 1.9393,0.99129 2.64906,1.83568 4.05005,2.68245 0.75061,0.45368 2.38649,0.14245 2.30781,1.2638 -0.0787,1.12135 -1.60932,0.72579 -2.6375,0.38463 -1.88453,-0.62532 -3.52018,-2.48769 -5.1651,-2.88947 -2.10489,-0.51413 -3.88298,-0.17086 -6.48385,-0.46234 2.12465,2.62834 2.58851,5.63651 4.39583,8.13228 3.17158,4.37971 6.82761,3.15497 8.84661,4.17603 0.77856,0.39374 1.58368,0.90061 2.03307,1.64844 0.39409,0.65581 1.29786,1.6925 0.43958,2.25286 -0.85828,0.56036 -1.0534,-0.0142 -1.48359,-0.27474 -0.7365,-0.44606 -0.54032,-1.31875 -1.53854,-1.81328 -1.01876,-0.5047 -2.38108,-0.54947 -3.46172,-0.38463 0.348,1.19969 0.80876,2.29893 1.3737,3.51666 0.36644,0.78987 1.5326,1.94543 0.54948,2.5276 -0.98311,0.58217 -1.36728,-0.61473 -1.75833,-1.20885 -1.05126,-1.59716 -1.74702,-4.77153 -2.5276,-5.49479 -1.75659,-1.6276 -2.7542,-1.65639 -4.39583,-4.23098 -1.28593,-2.01674 -2.38931,-5.60807 -3.18698,-6.4289 -2.70729,-2.78589 -7.23246,-5.30247 -8.70572,-7.74765 -0.20265,3.82804 0.66215,7.9467 1.4526,11.15442 1.81313,7.35787 6.22005,8.86868 7.85755,12.80285 0.84506,2.03029 0.31638,4.15982 -0.21979,6.319 -0.19741,0.79497 0.56254,2.12134 -0.35717,2.44518 -0.91971,0.32385 -1.39447,-0.43244 -1.56601,-1.07148 -0.23168,-0.86309 1.01654,-3.53498 0.65938,-5.82447 -0.5432,-3.48203 -4.12109,-5.04605 -6.26406,-8.51692 -0.14653,1.64843 -0.4862,3.31282 -1.2638,4.78046 -0.86672,1.63585 -2.49068,4.50254 -2.43046,5.25419 0.24817,3.09764 3.26865,7.23586 3.69426,8.20804 0.63977,1.46137 0.10319,4.65348 -1.04401,4.67057 -1.1472,0.0171 -0.70614,-1.36661 -0.62839,-2.06055 0.0693,-0.61887 0.19046,-1.3028 0,-1.8957 -0.44789,-1.39433 -1.75111,-2.42407 -2.44869,-3.51667 -0.76011,-1.19054 -1.21801,-2.21623 -1.53854,-3.57161 -1.16306,1.41033 -2.064126,2.92272 -2.747385,4.56068 -0.668531,1.60265 -0.252525,4.6847 0.49453,7.63775 0.071,0.28076 -0.0287,0.53416 -0.54948,0.73493 -0.520755,0.20076 -1.1321,-0.15395 -1.318748,-0.51514 -1.07274,-2.07591 -0.847865,-4.35831 -0.943542,-6.72916 -0.160898,-3.98699 6.867365,-10.74727 8.115035,-16.30722 1.21741,-5.42505 -2.06415,-11.69562 -2.77567,-18.00967 -4.045663,7.0818 -6.698395,7.04683 -8.407015,10.05546 -2.501092,4.40406 1.462008,11.74271 1.537664,13.09426 0.07718,1.37874 0.17783,4.19932 -1.098083,4.07223 -1.275913,-0.12709 -0.789268,-1.54076 -0.659373,-2.33057 0.219253,-1.33313 -0.363526,-2.698 -1.098958,-3.9013 -1.032852,1.8316 -1.975557,3.40621 -3.098556,5.18396 -0.350272,0.55449 -0.813002,0.95866 -1.361647,0.65327 -0.548645,-0.30538 -0.479564,-0.90463 -0.265313,-1.3315 0.999334,-1.99106 3.041567,-4.57038 3.249707,-5.93437 0.470186,-3.08124 -0.313286,-5.27086 0,-8.90155 -1.046604,1.24548 -2.345577,2.30644 -3.13981,3.73645 -1.237173,2.22751 -0.19369,6.96643 -1.648436,6.99448 -1.454746,0.0281 -0.936936,-1.30845 -0.914174,-1.55912 0.145213,-1.59915 0.382064,-1.7681 0.03885,-2.895 -1.118556,0.71007 -2.519545,1.0538 -3.277959,2.09136 -0.925326,1.26591 0.186927,2.62717 -1.076768,2.83786 -1.263695,0.21068 -0.794659,-3.14937 -0.306355,-3.89464 1.435394,-2.19076 3.876887,-2.14633 4.931974,-3.35515 1.566895,-1.7952 1.061116,-2.16509 4.505724,-5.54973 -2.824023,-0.44958 -4.895525,-0.98488 -6.373953,-0.82422 -0.993669,0.10798 -2.082666,1.55268 -2.912234,0.71432 -0.829567,-0.83836 0.838394,-1.9268 1.71005,-2.30448 2.247143,-0.97367 6.751498,1.04389 9.828998,-0.0583 4.335931,-1.55286 8.035337,-7.86708 8.516917,-10.87967 0.23425,-1.4654 -0.78095,-8.28599 -0.32635,-13.701448 -2.255656,1.79833 -3.497067,1.707 -5.717911,3.316298 -1.302976,0.94418 -4.517464,5.50918 -4.883693,6.46442 -0.481794,1.25668 0.06081,2.65096 -0.383352,3.93349 -0.31852,0.91975 -0.889997,1.95783 -1.656387,2.62474 -0.349818,0.30441 -1.108139,0.32995 -1.373695,0.21979 -0.265556,-0.11016 -0.48548,-0.95699 -0.274741,-1.3737 0.361452,-0.71473 1.293767,-0.97297 1.483593,-1.86823 0.194352,-0.9166 0.301944,-1.86823 0.219792,-2.80234 -1.573522,0.50897 -2.467099,0.16316 -3.768643,0.67213 -0.983767,0.38471 -1.899625,2.1094 -2.753486,1.63626 -0.853861,-0.47315 0.0059,-2.51511 2.126299,-3.46229 1.033742,-0.46176 2.322974,-0.12159 3.351821,-0.54948 2.343363,-0.97458 3.443399,-3.79473 5.165098,-5.66296 -3.079335,-0.0888 -4.721071,-1.498608 -7.198169,-1.315418 -2.39146,0.17686 -3.898299,2.095658 -6.648691,2.747388 -0.920058,0.21802 -2.770295,0.64979 -2.80234,-0.43958 -0.03204,-1.08937 1.243126,-0.92942 1.978123,-1.09896 1.436421,-0.33133 2.736854,-0.7598 3.901297,-1.868218 -1.160532,-0.89503 -5.901617,-2.23828 -5.039108,-3.72313 0.862509,-1.48484 3.869065,1.62859 5.918274,2.23953 1.038816,0.30971 2.038778,0.0366 3.058167,0.0549 -0.709129,-1.03014 -1.165706,-2.23512 -2.069105,-2.85729 -1.861352,-1.28191 -2.906236,-2.05688 -2.139061,-2.87396 0.767175,-0.81707 3.29443,1.27116 4.208166,2.59922 2.033478,2.95553 1.514703,4.07424 6.832447,4.34089 2.994242,0.15014 6.431805,-2.00541 7.964099,-4.08558 4.110446,-5.58012 2.800756,-17.18262 1.899036,-23.09301 z"
         id="path10"
         sodipodi:nodetypes="csssssscsszsscszzscszssscsszscszsscssszsscszsssscssszsscssszssscsszssscsszscszsscszscszsscszssscsssszsscszsscsszsczscszssscc" /><path
         style="display:inline;fill:#ffffff;fill-opacity:1;stroke-width:0.7;stroke-linecap:square"
         d="m 63.376366,48.464012 c -1.643865,-1.73114 -2.300121,-3.833878 -2.294099,-5.68796 0.01623,-4.996628 3.862165,-9.375211 8.819858,-9.402667 1.201223,-0.0067 2.502926,0.185683 3.035167,-0.349724 1.456875,-1.46554 3.920492,-6.099951 11.429153,-6.209106 4.456726,-0.06479 5.254426,0.920426 6.894578,0.946874 2.634108,0.04247 3.374427,-5.603581 13.546027,-5.617442 8.52877,-0.01162 10.87561,4.900846 13.07483,5.437076 1.25151,0.305154 1.79707,-0.533129 4.83817,-0.546719 6.3024,-0.02816 8.61065,3.132565 11.4841,5.494787 0.59096,0.485822 2.74631,-0.171254 4.12109,-0.164843 8.53181,0.03979 10.67236,7.955777 10.60493,10.440093 -0.0551,2.029765 -2.25286,5.659631 -2.25286,5.659631 h -6.48384 c -1.2505,0.21642 -2.38445,1.98701 -2.37219,2.70854 l 0.009,3.9951 c 0,0 -0.29003,5.01313 -4.7,5.05853 -4.40997,0.0454 -4.80598,-4.6739 -4.80598,-4.6739 v -3.73645 c 0.035,-1.36982 -1.6007,-3.36131 -2.69245,-3.35182 z"
         id="path2"
         sodipodi:nodetypes="cssssssssssscccczcccc" /><ellipse
         style="display:inline;fill:#feedb7;fill-opacity:1;stroke-width:0.699869;stroke-linecap:square"
         id="path7-2"
         cx="92.97229"
         cy="80.096054"
         rx="2.0592623"
         ry="1.9621271" /><ellipse
         style="display:inline;fill:#ffefb1;fill-opacity:1;stroke-width:0.699869;stroke-linecap:square"
         id="path7"
         cx="87.231018"
         cy="81.565674"
         rx="2.0592623"
         ry="1.9621271" /><ellipse
         style="fill:#ffeeba;fill-opacity:1;stroke-width:0.682862;stroke-linecap:square"
         id="path7-0"
         cx="120.81595"
         cy="79.739532"
         rx="2.0204084"
         ry="1.903846" /></g></g></svg>
